<?xml version="1.0" encoding="UTF-8" standalone="no"?>
<!DOCTYPE svg PUBLIC "-//W3C//DTD SVG 1.1//EN" "http://www.w3.org/Graphics/SVG/1.1/DTD/svg11.dtd">
<svg width="100%" height="100%" viewBox="0 0 16 16" version="1.1" xmlns="http://www.w3.org/2000/svg" xmlns:xlink="http://www.w3.org/1999/xlink" xml:space="preserve" xmlns:serif="http://www.serif.com/" style="fill-rule:evenodd;clip-rule:evenodd;stroke-linejoin:round;stroke-miterlimit:2;">
    <g transform="matrix(1.11724,0,0,1.10246,-0.993103,-0.920812)">
        <path d="M15.21,4.511C15.21,2.535 13.627,0.931 11.677,0.931L4.422,0.931C2.472,0.931 0.889,2.535 0.889,4.511L0.889,11.672C0.889,13.648 2.472,15.252 4.422,15.252L11.677,15.252C13.627,15.252 15.21,13.648 15.21,11.672L15.21,4.511Z" style="fill:rgb(179,134,21);"/>
    </g>
    <g transform="matrix(1,0,0,1,0.37318,-0.424524)">
        <g>
            <g transform="matrix(0.974667,0,0,0.664702,-0.170513,3.22848)">
                <path d="M2,6L6,6L6,10L2,10L2,6ZM3,7L3,9L5,9L5,7L3,7ZM10,6L14,6L14,10L10,10L10,6ZM11,7L11,9L13,9L13,7L11,7Z" style="fill:rgb(223,217,203);"/>
            </g>
            <g transform="matrix(-1.1077,-8.48184e-16,8.48184e-16,-1.1077,16.5121,27.5447)">
                <path d="M3.084,15.358L3.041,15.358L3.041,11.174L4.42,12.554C5.331,11.597 6.617,11 8.043,11C10.587,11 12.688,12.901 13.002,15.36L11.484,15.36C11.182,13.734 9.756,12.503 8.043,12.503C7.032,12.503 6.121,12.931 5.483,13.616L7.225,15.358L4.602,15.358C4.602,15.359 4.602,15.359 4.602,15.36L3.083,15.36C3.083,15.359 3.084,15.358 3.084,15.358Z" style="fill:rgb(223,217,203);"/>
            </g>
            <g transform="matrix(1.10343,0,0,1.10343,-1.22422,0.937333)">
                <path d="M3.084,4.858L3.041,4.858L3.041,0.674L4.42,2.054C5.331,1.097 6.617,0.5 8.043,0.5C10.587,0.5 12.688,2.401 13.002,4.86L11.484,4.86C11.182,3.234 9.756,2.003 8.043,2.003C7.032,2.003 6.121,2.431 5.483,3.116L7.225,4.858L4.602,4.858C4.602,4.859 4.602,4.859 4.602,4.86L3.083,4.86C3.083,4.859 3.084,4.858 3.084,4.858Z" style="fill:rgb(223,217,203);"/>
            </g>
        </g>
    </g>
</svg>
